<svg width="52" height="51" viewBox="0 0 52 51" fill="none" xmlns="http://www.w3.org/2000/svg">
    <path fill-rule="evenodd" clip-rule="evenodd" d="M49.507 16.4876L33.8265 2.44051C35.6682 0.916123 38.0317 0 40.6091 0C46.4876 0 51.2531 4.76549 51.2531 10.644C51.2531 12.8021 50.6108 14.8102 49.507 16.4876Z" fill="currentColor "/>
    <path fill-rule="evenodd" clip-rule="evenodd" d="M1.74611 16.4876L17.4266 2.44051C15.585 0.916123 13.2215 0 10.644 0C4.76549 0 0 4.76549 0 10.644C0 12.8021 0.642277 14.8102 1.74611 16.4876Z" fill="currentColor "/>
    <path fill-rule="evenodd" clip-rule="evenodd" d="M42.4121 41.645C45.8909 37.6839 48.0001 32.4904 48.0001 26.8042C48.0001 14.3777 37.9266 4.3042 25.5001 4.3042C13.0736 4.3042 3.0001 14.3777 3.0001 26.8042C3.0001 32.4904 5.10931 37.6839 8.58804 41.645L4.23222 46.0008C3.25591 46.9771 3.25591 48.56 4.23222 49.5363C5.20853 50.5126 6.79144 50.5126 7.76775 49.5363L12.2865 45.0175C15.9967 47.7139 20.5627 49.3042 25.5001 49.3042C30.4375 49.3042 35.0035 47.7139 38.7137 45.0175L43.2324 49.5363C44.2088 50.5126 45.7917 50.5126 46.768 49.5363C47.7443 48.56 47.7443 46.9771 46.768 46.0008L42.4121 41.645ZM24.0001 26.3042V11.3042H27.0001V29.3042H14.0001V26.3042H24.0001Z" fill="currentColor "/>
</svg>
